<svg id="Layer_1" data-name="Layer 1" xmlns="http://www.w3.org/2000/svg" viewBox="0 0 2000 2000"><defs><style>.cls-1{fill:#010b17;}</style></defs><path class="cls-1" d="M801.08,1108.16a15.37,15.37,0,0,1-5.64-3.1l1.81-3.81a14.79,14.79,0,0,0,5,2.86,18.4,18.4,0,0,0,6.27,1.1q4.25,0,6.35-1.44a4.45,4.45,0,0,0,2.09-3.83,3.78,3.78,0,0,0-1.14-2.86,7.75,7.75,0,0,0-2.83-1.68c-1.13-.39-2.71-.83-4.76-1.32a48.49,48.49,0,0,1-6.22-1.86,10.22,10.22,0,0,1-4.06-2.85,7.65,7.65,0,0,1-1.68-5.2,8.81,8.81,0,0,1,1.44-4.93,9.94,9.94,0,0,1,4.37-3.51,17.66,17.66,0,0,1,7.27-1.32,23.11,23.11,0,0,1,6,.78,15.74,15.74,0,0,1,5,2.25l-1.61,3.9a17.58,17.58,0,0,0-4.59-2.07,16.79,16.79,0,0,0-4.78-.71q-4.15,0-6.22,1.51a4.63,4.63,0,0,0-2.08,3.91,3.72,3.72,0,0,0,1.17,2.85,8.27,8.27,0,0,0,2.91,1.71,42.71,42.71,0,0,0,4.71,1.29,47.57,47.57,0,0,1,6.2,1.86,10.41,10.41,0,0,1,4,2.83,7.42,7.42,0,0,1,1.69,5.12,8.71,8.71,0,0,1-1.47,4.91,9.72,9.72,0,0,1-4.44,3.51,18.37,18.37,0,0,1-7.32,1.3A23.28,23.28,0,0,1,801.08,1108.16Z"/><path class="cls-1" d="M841.56,1074.8h4.88V1109h-4.88Z"/><path class="cls-1" d="M901.06,1109l0-24.9-12.35,20.75h-2.24l-12.35-20.6V1109h-4.69V1074.8h4l14.26,24,14.05-24h4l0,34.17Z"/><path class="cls-1" d="M952.45,1078a11.93,11.93,0,0,1,0,17.48q-3.81,3.16-10.44,3.17h-8.45V1109h-4.88V1074.8H942Q948.64,1074.8,952.45,1078Zm-3.51,14.43a7.85,7.85,0,0,0,0-11.38q-2.45-2-7.08-2h-8.3v15.32h8.3Q946.5,1094.37,948.94,1092.4Z"/><path class="cls-1" d="M976.12,1074.8H981v29.92h18.5V1109H976.12Z"/><path class="cls-1" d="M1042.6,1104.72V1109h-24.8V1074.8h24.11v4.25h-19.23v10.49h17.14v4.15h-17.14v11Z"/><path class="cls-1" d="M1089,1074.8h14.4A20.87,20.87,0,0,1,1113,1077a15.75,15.75,0,0,1,6.51,6,18.25,18.25,0,0,1,0,17.81,15.75,15.75,0,0,1-6.51,6,20.87,20.87,0,0,1-9.62,2.15H1089Zm14.11,29.92a15.82,15.82,0,0,0,7.29-1.61,11.68,11.68,0,0,0,4.86-4.52,14,14,0,0,0,0-13.42,11.66,11.66,0,0,0-4.86-4.51,15.69,15.69,0,0,0-7.29-1.61h-9.23v25.67Z"/><path class="cls-1" d="M1148.12,1107.09a16.83,16.83,0,0,1-6.52-6.28,18.08,18.08,0,0,1,0-17.86,16.73,16.73,0,0,1,6.52-6.27,20.17,20.17,0,0,1,18.59,0,16.7,16.7,0,0,1,6.5,6.25,18.31,18.31,0,0,1,0,17.91,16.77,16.77,0,0,1-6.5,6.25,20.17,20.17,0,0,1-18.59,0Zm16.08-3.79a12.51,12.51,0,0,0,4.73-4.71,13.81,13.81,0,0,0,0-13.42,12.51,12.51,0,0,0-4.73-4.71,13.42,13.42,0,0,0-6.76-1.71,13.69,13.69,0,0,0-6.81,1.71,12.43,12.43,0,0,0-4.78,4.71,13.88,13.88,0,0,0,0,13.42,12.43,12.43,0,0,0,4.78,4.71,13.69,13.69,0,0,0,6.81,1.71A13.42,13.42,0,0,0,1164.2,1103.3Z"/><path class="cls-1" d="M1201.73,1107.09a16.73,16.73,0,0,1-6.46-6.25,18.24,18.24,0,0,1,0-17.91,16.61,16.61,0,0,1,6.49-6.25,19,19,0,0,1,9.27-2.27,19.43,19.43,0,0,1,7.32,1.34,15,15,0,0,1,5.66,4l-3.17,3.07a12.73,12.73,0,0,0-9.61-4,13.94,13.94,0,0,0-6.89,1.71,12.35,12.35,0,0,0-4.8,4.71,13.81,13.81,0,0,0,0,13.42,12.35,12.35,0,0,0,4.8,4.71,13.94,13.94,0,0,0,6.89,1.71,12.73,12.73,0,0,0,9.61-4.1L1224,1104a15.28,15.28,0,0,1-5.68,4,19.28,19.28,0,0,1-7.35,1.37A18.89,18.89,0,0,1,1201.73,1107.09Z"/><path class="cls-1" d="M1247.05,1105.45q-3.81-3.9-3.81-11.22V1074.8h4.88V1094q0,11,9.62,11,4.68,0,7.17-2.71t2.49-8.27V1074.8h4.74v19.43q0,7.37-3.81,11.25t-10.64,3.88Q1250.85,1109.36,1247.05,1105.45Z"/><path class="cls-1" d="M1326.51,1109l0-24.9-12.35,20.75h-2.24l-12.35-20.6V1109h-4.69V1074.8h4l14.26,24,14.05-24h4l0,34.17Z"/><path class="cls-1" d="M1378.93,1104.72V1109h-24.8V1074.8h24.11v4.25H1359v10.49h17.13v4.15H1359v11Z"/><path class="cls-1" d="M1428.9,1074.8V1109h-4l-20.5-25.48V1109h-4.88V1074.8h4l20.5,25.48V1074.8Z"/><path class="cls-1" d="M1458.63,1079.05h-11.72v-4.25h28.26v4.25h-11.71V1109h-4.83Z"/><path class="cls-1" d="M1513.24,1100.42h-18.15l-3.76,8.55h-5l15.47-34.17h4.84l15.52,34.17H1517Zm-1.7-3.9-7.38-16.74-7.36,16.74Z"/><path class="cls-1" d="M1545,1079.05h-11.72v-4.25h28.26v4.25H1549.8V1109H1545Z"/><path class="cls-1" d="M1579.52,1074.8h4.88V1109h-4.88Z"/><path class="cls-1" d="M1613.44,1107.09a16.8,16.8,0,0,1-6.51-6.28,18,18,0,0,1,0-17.86,16.71,16.71,0,0,1,6.51-6.27,20.19,20.19,0,0,1,18.6,0,16.67,16.67,0,0,1,6.49,6.25,18.31,18.31,0,0,1,0,17.91,16.75,16.75,0,0,1-6.49,6.25,20.19,20.19,0,0,1-18.6,0Zm16.08-3.79a12.54,12.54,0,0,0,4.74-4.71,13.88,13.88,0,0,0,0-13.42,12.54,12.54,0,0,0-4.74-4.71,13.39,13.39,0,0,0-6.75-1.71,13.67,13.67,0,0,0-6.81,1.71,12.46,12.46,0,0,0-4.79,4.71,13.88,13.88,0,0,0,0,13.42,12.46,12.46,0,0,0,4.79,4.71,13.67,13.67,0,0,0,6.81,1.71A13.39,13.39,0,0,0,1629.52,1103.3Z"/><path class="cls-1" d="M1690.41,1074.8V1109h-4l-20.5-25.48V1109H1661V1074.8h4l20.5,25.48V1074.8Z"/><path class="cls-1" d="M847.63,979.68l-29.3,29.76v41.43H795.44V890.64h22.89v89.5l87-89.5H931.4L863,962.74l72.79,88.13H909Z"/><path class="cls-1" d="M1055.69,1010.81H970.54l-17.62,40.06H929.34l72.56-160.23h22.66l72.79,160.23h-24Zm-8-18.31L1013.12,914,978.56,992.5Z"/><path class="cls-1" d="M1121.15,890.64H1144V1031h86.76v19.91H1121.15Z"/><path class="cls-1" d="M1405.67,1050.87l-.23-116.74-57.91,97.28H1337l-57.91-96.59v116h-22V890.64h18.77l66.83,112.62,65.93-112.62h18.77l.23,160.23Z"/><path class="cls-1" d="M1475.71,890.64h22.89v160.23h-22.89Z"/><path class="cls-1" d="M1648.75,1010.81H1563.6L1546,1050.87H1522.4L1595,890.64h22.66l72.79,160.23h-24Zm-8-18.31L1606.18,914l-34.56,78.51Z"/><path class="cls-1" d="M658.74,944.89a129.59,129.59,0,0,0-252.09,0c-.84.08-1.69.12-2.53.28a1,1,0,0,0-.48,0,36,36,0,0,0-3.65.44c-.81.08-1.61.2-2.37.32-1,.16-1.93.32-2.85.52-.68.12-1.33.24-2,.4-.88.16-1.72.36-2.57.56l-2.85.73c-.48.12-1,.28-1.48.44-1.25.36-2.45.72-3.66,1.12-1.56.52-3.13,1-4.65,1.65a98.35,98.35,0,0,0-13.69,6.34c-1.16.64-2.37,1.33-3.49,2a104,104,0,0,0-36.65,37.33,100.94,100.94,0,0,0-6.63,13.53,92.8,92.8,0,0,0-4.41,13.61,5,5,0,0,0-.28,1.24,74.56,74.56,0,0,0-1.73,8.91c-.24,1.49-.44,3-.56,4.5-.12,1.2-.24,2.41-.28,3.61-.2,2.37-.28,4.74-.28,7.1a105,105,0,0,0,104.12,104.93v0h17.87l7.78-16L526,960.3l87.27,42.43-16.9,34.76,34.2,16.62-41,84.38-7.78,16,17.86,0h48.61l.72,0c.6,0,1.17,0,1.77,0,1,0,2,0,2.93,0l.92,0a6.12,6.12,0,0,0,.85,0,104.66,104.66,0,0,0,100.31-104.89C755.76,994.7,712.81,949,658.74,944.89Zm-4.46,193.56a.36.36,0,0,0-.2,0h-.92c-1.13,0-2.25.08-3.38,0l-1.32-.08h-41l37.89-77.88-7.43-21.47-10.15-29.35-7.43-21.47-94.49-45.92a8,8,0,0,0-10.72,3.69l-93.57,192.48H414.6a89.08,89.08,0,0,1-36.57-7.87c-1.41-.64-2.77-1.33-4.14-2-1.64-.84-3.25-1.72-4.81-2.69-.48-.32-1-.6-1.41-.88a13.46,13.46,0,0,1-1.4-.88,3.54,3.54,0,0,1-.68-.48,6.45,6.45,0,0,1-.93-.61c-.32-.24-.64-.44-1-.64-1-.68-2-1.4-2.93-2.13v0c-.64-.48-1.21-.92-1.81-1.4-1.12-.89-2.25-1.85-3.33-2.81-1.36-1.17-2.65-2.41-3.89-3.65-2-2-3.9-4.1-5.74-6.27a79.6,79.6,0,0,1-5.14-6.9c-1.57-2.37-3.05-4.78-4.46-7.31-.68-1.24-1.36-2.57-2-3.85-1.25-2.57-2.37-5.22-3.38-7.95a88.62,88.62,0,0,1-2.65-52.5c.37-1.41.77-2.81,1.17-4.18a.58.58,0,0,1,.08-.28c.48-1.56,1-3.09,1.56-4.57.08-.21.16-.41.21-.57.48-1.24,1-2.44,1.52-3.65.2-.52.44-1,.68-1.57a.41.41,0,0,0,.05-.09c.59-1.22,1.17-2.45,1.76-3.67.75-1.42,1.5-2.8,2.29-4.18a102,102,0,0,1,6.7-9.84v0a81.76,81.76,0,0,1,7.91-8.79c1.66-1.63,3.39-3.15,5.17-4.67l.11-.09c.49-.42,1-.84,1.48-1.24s.95-.75,1.44-1.12c1.31-1,2.64-2,4-3,1.09-.77,2.21-1.49,3.33-2.17s2.45-1.45,3.7-2.17,2.49-1.32,3.77-2q3.74-1.86,7.71-3.37a21.46,21.46,0,0,1,2.24-.84c.89-.32,1.81-.64,2.77-.92a5.1,5.1,0,0,1,.61-.17c1.2-.4,2.45-.76,3.69-1.08a1.73,1.73,0,0,1,.2,0c1.32-.36,2.65-.64,4-.92a6.66,6.66,0,0,1,.85-.16c1.2-.24,2.41-.48,3.65-.64,0,0,.12-.05.16,0,1.33-.25,2.65-.41,4-.57.41,0,.81-.08,1.21-.08a36.42,36.42,0,0,1,3.65-.28c1.53-.08,3.05-.12,4.58-.12A88.53,88.53,0,0,1,458.12,972a8,8,0,1,0,8-13.92A103.47,103.47,0,0,0,423.19,945a113.54,113.54,0,0,1,221.1,9.11,8,8,0,0,0,7.74,6.54c48.37.68,87.67,40.58,87.67,88.91A88.68,88.68,0,0,1,654.28,1138.45Z"/><polygon class="cls-1" points="525.91 998.03 523.86 1002.29 587.57 1033.28 589.61 1029.02 525.91 998.03"/><polygon class="cls-1" points="511.7 1028.94 602.98 1073.34 605.07 1069.08 513.75 1024.69 511.7 1028.94"/><polygon class="cls-1" points="498.89 1055.28 590.17 1099.67 592.26 1095.42 500.94 1051.02 498.89 1055.28"/><polygon class="cls-1" points="486.09 1081.61 577.37 1126 579.46 1121.75 488.14 1077.35 486.09 1081.61"/></svg>